<?xml version="1.0" encoding="UTF-8" standalone="no"?>
<svg
   data-v-fde0c5aa=""
   viewBox="0 0 220.74868 47.807476"
   class="iconLeft"
   version="1.1"
   id="svg3"
   sodipodi:docname="defaultedit.svg"
   inkscape:version="1.3.2 (091e20e, 2023-11-25, custom)"
   width="220.74867"
   height="47.807476"
   xmlns:inkscape="http://www.inkscape.org/namespaces/inkscape"
   xmlns:sodipodi="http://sodipodi.sourceforge.net/DTD/sodipodi-0.dtd"
   xmlns="http://www.w3.org/2000/svg"
   xmlns:svg="http://www.w3.org/2000/svg">
  <sodipodi:namedview
     id="namedview3"
     pagecolor="#ffffff"
     bordercolor="#000000"
     borderopacity="0.25"
     inkscape:showpageshadow="2"
     inkscape:pageopacity="0.0"
     inkscape:pagecheckerboard="0"
     inkscape:deskcolor="#d1d1d1"
     inkscape:zoom="3.1166667"
     inkscape:cx="77.647058"
     inkscape:cy="21.016043"
     inkscape:window-width="1920"
     inkscape:window-height="991"
     inkscape:window-x="2425"
     inkscape:window-y="-9"
     inkscape:window-maximized="1"
     inkscape:current-layer="svg3" />
  <!---->
  <defs
     data-v-fde0c5aa=""
     id="defs1">
    <!---->
  </defs>
  <rect
     data-v-fde0c5aa=""
     fill="#e1396f"
     x="0"
     y="0"
     width="220.74867"
     height="47.807476"
     class="logo-background-square"
     id="rect1"
     style="stroke-width:0.342432" />
  <defs
     data-v-fde0c5aa=""
     id="defs2">
    <!---->
  </defs>
  <g
     data-v-fde0c5aa=""
     id="7ec04e69-ada0-4cde-bb31-dfdd0f1b842d"
     fill="#d6fcc9"
     transform="matrix(0.88793445,0,0,1.4435516,51.952995,15.248356)">
    <path
       d="m 3.09,6.55 v 2.4 H 6.64 V 10.5 H 1.13 V 1.36 H 6.64 L 6.34,2.91 H 3.09 V 5 h 3.25 v 1.55 z m 8.12,-3.43 v 0 q 0.47,0 1,0.15 0.53,0.15 0.99,0.48 0.46,0.32 0.76,0.84 0.29,0.52 0.28,1.26 v 0 4.65 h -1.37 q 0,0 -0.05,-0.17 Q 12.78,10.16 12.73,9.95 12.68,9.74 12.64,9.58 12.6,9.42 12.6,9.44 v 0 q -0.2,0.35 -0.52,0.61 v 0 q -0.28,0.24 -0.72,0.42 -0.44,0.18 -1.08,0.18 v 0 Q 9.83,10.65 9.39,10.52 8.96,10.39 8.62,10.13 8.27,9.87 8.06,9.48 7.84,9.09 7.83,8.57 v 0 Q 7.8,8.02 7.97,7.59 8.15,7.17 8.48,6.86 8.81,6.55 9.27,6.36 9.73,6.17 10.28,6.1 v 0 q 0.51,-0.07 1.13,-0.07 0.62,0 1.11,0.03 v 0 -0.22 q 0,-0.6 -0.27,-0.91 Q 11.98,4.63 11.59,4.54 11.19,4.45 10.71,4.52 10.23,4.59 9.8,4.72 9.37,4.86 9.04,5 8.71,5.15 8.62,5.22 v 0 -1.41 Q 8.64,3.79 8.88,3.69 9.11,3.58 9.48,3.46 9.84,3.33 10.3,3.23 10.75,3.12 11.21,3.12 Z m 0.9,5.56 v 0 Q 12.35,8.37 12.43,7.99 12.5,7.62 12.5,7.2 v 0 H 11.69 Q 11.37,7.2 11,7.24 10.64,7.28 10.33,7.41 10.02,7.53 9.81,7.78 9.6,8.02 9.6,8.44 v 0 q 0,0.46 0.35,0.67 0.34,0.21 0.84,0.21 v 0 q 0.44,0 0.77,-0.17 0.33,-0.18 0.55,-0.47 z m 8.68,-4.7 -0.63,1.41 Q 19.68,5.03 19.12,4.84 18.56,4.66 18.19,4.66 v 0 q -0.37,0 -0.58,0.13 -0.21,0.12 -0.21,0.45 v 0 q 0,0.28 0.27,0.44 0.26,0.17 0.66,0.32 0.39,0.15 0.85,0.31 0.46,0.16 0.85,0.42 0.4,0.26 0.66,0.65 0.27,0.4 0.27,1.02 v 0 q 0,0.59 -0.22,1.01 -0.22,0.43 -0.57,0.71 -0.36,0.27 -0.82,0.4 -0.46,0.13 -0.95,0.13 v 0 q -0.35,0 -0.75,-0.07 Q 17.25,10.5 16.86,10.34 16.48,10.18 16.12,9.95 15.76,9.72 15.5,9.42 v 0 l 0.61,-1.37 q 0.49,0.53 1.05,0.81 0.56,0.27 1.03,0.27 v 0 q 0.39,0 0.75,-0.14 0.37,-0.14 0.38,-0.48 v 0 Q 19.33,8.19 19.07,7.99 18.82,7.78 18.42,7.63 18.03,7.48 17.57,7.31 17.11,7.15 16.72,6.9 16.32,6.65 16.06,6.27 15.79,5.89 15.81,5.29 v 0 q 0,-0.57 0.2,-0.99 0.2,-0.41 0.54,-0.67 0.33,-0.26 0.77,-0.38 0.45,-0.13 0.92,-0.13 v 0 q 0.28,0 0.62,0.06 0.33,0.05 0.68,0.17 0.34,0.11 0.67,0.26 0.33,0.16 0.58,0.37 z m 4.63,5.22 v 0 q 0.41,0 0.76,-0.07 v 0 q 0.17,-0.04 0.34,-0.09 v 0 l 0.01,1.46 Q 26.28,10.54 26,10.58 v 0 q -0.24,0.03 -0.56,0.05 -0.32,0.02 -0.69,0.02 v 0 Q 24.22,10.6 23.81,10.33 v 0 Q 23.46,10.09 23.18,9.63 22.89,9.16 22.89,8.3 v 0 -2.94 H 21.52 V 3.99 h 1.37 V 1.97 l 1.86,-0.42 v 2.44 h 1.7 V 5.36 H 24.78 V 8.2 q 0,0.19 0.05,0.36 0.05,0.18 0.14,0.32 0.09,0.14 0.21,0.23 0.12,0.09 0.24,0.09 z M 37.53,1.36 v 0 h 1.99 L 36.53,10.5 H 34.1 L 31.04,1.36 h 1.97 l 2.31,7.04 z m 5.16,1.76 v 0 q 0.46,0 0.99,0.15 0.53,0.15 0.99,0.48 0.47,0.32 0.76,0.84 0.29,0.52 0.28,1.26 v 0 4.65 h -1.37 q 0,0 -0.04,-0.17 Q 44.25,10.16 44.2,9.95 44.16,9.74 44.11,9.58 44.07,9.42 44.07,9.44 v 0 q -0.19,0.35 -0.52,0.61 v 0 q -0.28,0.24 -0.72,0.42 -0.44,0.18 -1.08,0.18 v 0 q -0.45,0 -0.88,-0.13 Q 40.43,10.39 40.09,10.13 39.75,9.87 39.53,9.48 39.31,9.09 39.3,8.57 v 0 Q 39.27,8.02 39.44,7.59 39.62,7.17 39.95,6.86 40.28,6.55 40.74,6.36 41.2,6.17 41.75,6.1 v 0 q 0.52,-0.07 1.13,-0.07 0.62,0 1.11,0.03 v 0 -0.22 q 0,-0.6 -0.27,-0.91 Q 43.46,4.63 43.06,4.54 42.66,4.45 42.18,4.52 41.71,4.59 41.27,4.72 40.84,4.86 40.51,5 40.18,5.15 40.1,5.22 v 0 -1.41 q 0.01,-0.02 0.25,-0.12 0.24,-0.11 0.6,-0.23 0.36,-0.13 0.82,-0.23 0.45,-0.11 0.92,-0.11 z m 0.89,5.56 v 0 Q 43.82,8.37 43.9,7.99 43.97,7.62 43.97,7.2 v 0 h -0.81 q -0.32,0 -0.68,0.04 -0.37,0.04 -0.68,0.17 -0.3,0.12 -0.51,0.37 -0.21,0.24 -0.21,0.66 v 0 q 0,0.46 0.34,0.67 0.34,0.21 0.85,0.21 v 0 q 0.43,0 0.76,-0.17 0.33,-0.18 0.55,-0.47 z m 5.81,-0.2 v 0 q 0.02,0.24 0.13,0.38 0.11,0.14 0.27,0.2 0.16,0.07 0.37,0.07 0.2,0.01 0.42,-0.02 v 0 1.45 q -0.19,0.04 -0.34,0.06 -0.15,0.02 -0.26,0.03 v 0 q -0.13,0.02 -0.21,0 v 0 q -0.53,0 -0.95,-0.04 Q 48.4,10.57 48.1,10.34 47.81,10.11 47.66,9.64 47.5,9.17 47.5,8.3 v 0 -6.75 h 1.89 z m 4.86,0 v 0 q 0.01,0.24 0.13,0.38 0.11,0.14 0.27,0.2 0.16,0.07 0.36,0.07 0.21,0.01 0.43,-0.02 v 0 1.45 q -0.2,0.04 -0.34,0.06 -0.15,0.02 -0.26,0.03 v 0 q -0.13,0.02 -0.21,0 v 0 q -0.53,0 -0.95,-0.04 Q 53.26,10.57 52.96,10.34 52.67,10.11 52.51,9.64 52.36,9.17 52.36,8.3 v 0 -6.75 h 1.89 z m 6.41,2.17 v 0 q -1.16,0 -1.92,-0.3 Q 57.99,10.04 57.53,9.52 57.08,9 56.9,8.32 56.71,7.64 56.71,6.89 v 0 q 0,-0.67 0.19,-1.35 0.18,-0.67 0.58,-1.21 0.4,-0.54 1.04,-0.87 0.64,-0.34 1.57,-0.34 v 0 q 0.98,0 1.63,0.34 0.65,0.33 1.04,0.87 0.39,0.54 0.56,1.21 0.16,0.68 0.16,1.35 v 0 0.63 h -4.96 q 0,0.75 0.54,1.24 0.54,0.49 1.48,0.49 v 0 q 0.53,0 0.98,-0.11 0.44,-0.11 0.77,-0.25 v 0 q 0.36,-0.15 0.67,-0.36 v 0 1.56 q 0,0.02 -0.18,0.1 -0.19,0.09 -0.49,0.19 -0.31,0.11 -0.73,0.19 -0.42,0.08 -0.9,0.08 z M 58.52,6.19 H 61.7 Q 61.7,5.95 61.64,5.66 61.57,5.38 61.4,5.12 61.22,4.87 60.91,4.7 60.59,4.54 60.09,4.54 v 0 q -0.44,0 -0.74,0.16 -0.3,0.17 -0.48,0.42 -0.18,0.26 -0.27,0.54 -0.08,0.29 -0.08,0.53 z m 11.05,-2.9 h 2.05 l -2.71,7.03 q -0.02,0.03 -0.1,0.24 -0.08,0.22 -0.27,0.53 -0.18,0.31 -0.46,0.65 -0.28,0.34 -0.68,0.64 -0.4,0.29 -0.92,0.49 -0.53,0.19 -1.18,0.19 v 0 -1.61 q 0.4,0 0.7,-0.17 0.29,-0.18 0.49,-0.39 v 0 q 0.22,-0.25 0.37,-0.57 v 0 L 64.13,3.29 h 2.08 l 1.76,5.25 z m 9.19,3.26 V 10.5 H 76.8 V 1.36 h 5.52 L 82.03,2.91 H 78.76 V 5 h 3.27 v 1.55 z m 7.72,-3.43 v 0 q 0.46,0 0.99,0.15 0.53,0.15 1,0.48 0.46,0.32 0.75,0.84 0.3,0.52 0.28,1.26 v 0 4.65 h -1.37 q 0,0 -0.04,-0.17 Q 88.05,10.16 88,9.95 87.95,9.74 87.91,9.58 87.86,9.42 87.86,9.44 v 0 q -0.19,0.35 -0.51,0.61 v 0 q -0.28,0.24 -0.72,0.42 -0.45,0.18 -1.09,0.18 v 0 q -0.45,0 -0.88,-0.13 Q 84.22,10.39 83.88,10.13 83.54,9.87 83.32,9.48 83.1,9.09 83.09,8.57 v 0 q -0.03,-0.55 0.15,-0.98 0.17,-0.42 0.5,-0.73 0.33,-0.31 0.79,-0.5 0.46,-0.19 1.01,-0.26 v 0 q 0.52,-0.07 1.13,-0.07 0.62,0 1.11,0.03 v 0 -0.22 q 0,-0.6 -0.27,-0.91 Q 87.25,4.63 86.85,4.54 86.45,4.45 85.97,4.52 85.5,4.59 85.06,4.72 84.63,4.86 84.3,5 83.97,5.15 83.89,5.22 v 0 -1.41 q 0.01,-0.02 0.25,-0.12 0.24,-0.11 0.6,-0.23 0.37,-0.13 0.82,-0.23 0.46,-0.11 0.92,-0.11 z m 0.89,5.56 v 0 Q 87.61,8.37 87.69,7.99 87.77,7.62 87.77,7.2 v 0 h -0.82 q -0.32,0 -0.68,0.04 -0.37,0.04 -0.67,0.17 -0.31,0.12 -0.52,0.37 -0.21,0.24 -0.21,0.66 v 0 q 0,0.46 0.34,0.67 0.34,0.21 0.85,0.21 v 0 q 0.43,0 0.76,-0.17 0.33,-0.18 0.55,-0.47 z m 8.32,-5.5 V 5.1 Q 95.37,5.03 95.11,5.02 94.85,5.01 94.63,5.03 v 0 Q 94.18,5.05 93.89,5.22 93.6,5.39 93.45,5.66 93.3,5.94 93.24,6.28 93.18,6.62 93.18,6.99 v 0 3.51 H 91.29 V 3.36 h 1.39 l 0.29,1.57 q 0,0 0.04,-0.16 0.03,-0.16 0.14,-0.39 0.1,-0.24 0.3,-0.5 0.2,-0.25 0.5,-0.45 0.3,-0.2 0.72,-0.28 0.43,-0.08 1.02,0.03 z m 9.42,-0.06 v 0 q 0.76,0 1.21,0.27 0.46,0.26 0.7,0.7 0.23,0.43 0.31,0.99 0.08,0.56 0.08,1.16 v 0 4.26 h -1.88 v -0.01 l -0.01,-4.3 q 0,-0.35 -0.04,-0.65 -0.05,-0.29 -0.17,-0.5 -0.11,-0.21 -0.32,-0.33 -0.21,-0.12 -0.54,-0.12 v 0 q -0.42,0 -0.7,0.2 -0.28,0.19 -0.43,0.5 -0.15,0.3 -0.22,0.65 -0.06,0.35 -0.06,0.65 v 0 3.91 h -1.85 v -0.01 h -0.01 v -4.3 q 0,-0.35 -0.05,-0.65 -0.05,-0.29 -0.18,-0.51 -0.12,-0.21 -0.35,-0.33 -0.22,-0.12 -0.57,-0.12 v 0 q -0.39,0 -0.64,0.19 -0.26,0.2 -0.41,0.5 -0.15,0.3 -0.22,0.66 -0.06,0.36 -0.06,0.66 v 0 3.91 H 96.82 V 3.29 h 1.42 l 0.31,1.11 q 0,0 0.12,-0.2 Q 98.8,4 99.05,3.77 99.3,3.53 99.69,3.33 100.07,3.12 100.6,3.12 v 0 q 0.7,0 1.14,0.2 0.43,0.19 0.68,0.43 v 0 q 0.3,0.28 0.44,0.63 v 0 q 0.03,-0.04 0.15,-0.24 0.13,-0.19 0.39,-0.42 0.27,-0.23 0.69,-0.42 0.42,-0.18 1.02,-0.18 z m 7.69,7.53 v 0 q -1.16,0 -1.92,-0.3 -0.76,-0.31 -1.21,-0.83 -0.46,-0.52 -0.64,-1.2 -0.18,-0.68 -0.18,-1.43 v 0 q 0,-0.67 0.18,-1.35 0.18,-0.67 0.58,-1.21 0.4,-0.54 1.05,-0.87 0.64,-0.34 1.56,-0.34 v 0 q 0.98,0 1.64,0.34 0.65,0.33 1.04,0.87 0.39,0.54 0.55,1.21 0.16,0.68 0.16,1.35 v 0 0.63 h -4.95 q 0,0.75 0.54,1.24 0.53,0.49 1.47,0.49 v 0 q 0.53,0 0.98,-0.11 0.45,-0.11 0.77,-0.25 v 0 q 0.37,-0.15 0.67,-0.36 v 0 1.56 q 0,0.02 -0.18,0.1 -0.18,0.09 -0.49,0.19 -0.31,0.11 -0.73,0.19 -0.42,0.08 -0.89,0.08 z m -2.14,-4.46 h 3.17 q 0,-0.24 -0.06,-0.53 -0.06,-0.28 -0.24,-0.54 -0.17,-0.25 -0.49,-0.42 -0.31,-0.16 -0.82,-0.16 v 0 q -0.43,0 -0.73,0.16 -0.3,0.17 -0.48,0.42 -0.19,0.26 -0.27,0.54 -0.08,0.29 -0.08,0.53 z M 121.52,3.18 V 5.1 q -0.32,-0.07 -0.58,-0.08 -0.26,-0.01 -0.48,0.01 v 0 q -0.45,0.02 -0.74,0.19 -0.29,0.17 -0.44,0.44 -0.15,0.28 -0.21,0.62 -0.06,0.34 -0.06,0.71 v 0 3.51 h -1.89 V 3.36 h 1.39 l 0.29,1.57 q 0,0 0.04,-0.16 0.03,-0.16 0.14,-0.39 0.1,-0.24 0.3,-0.5 0.2,-0.25 0.5,-0.45 0.3,-0.2 0.72,-0.28 0.43,-0.08 1.02,0.03 z m 1.53,1.22 V 0.71 h 1.61 V 4.4 Z m 8.7,-0.42 -0.63,1.41 q -0.47,-0.36 -1.03,-0.55 -0.56,-0.18 -0.94,-0.18 v 0 q -0.36,0 -0.57,0.13 -0.21,0.12 -0.21,0.45 v 0 q 0,0.28 0.26,0.44 0.27,0.17 0.66,0.32 0.39,0.15 0.85,0.31 0.47,0.16 0.86,0.42 0.39,0.26 0.66,0.65 0.26,0.4 0.26,1.02 v 0 q 0,0.59 -0.22,1.01 -0.21,0.43 -0.57,0.71 -0.36,0.27 -0.82,0.4 -0.46,0.13 -0.95,0.13 v 0 q -0.35,0 -0.75,-0.07 -0.4,-0.08 -0.78,-0.24 -0.39,-0.16 -0.75,-0.39 -0.35,-0.23 -0.62,-0.53 v 0 l 0.62,-1.37 q 0.49,0.53 1.05,0.81 0.56,0.27 1.02,0.27 v 0 q 0.39,0 0.76,-0.14 0.36,-0.14 0.37,-0.48 v 0 Q 130.3,8.19 130.04,7.99 129.78,7.78 129.39,7.63 129,7.48 128.53,7.31 128.07,7.15 127.68,6.9 127.29,6.65 127.02,6.27 126.76,5.89 126.77,5.29 v 0 q 0,-0.57 0.2,-0.99 0.21,-0.41 0.54,-0.67 0.34,-0.26 0.78,-0.38 0.44,-0.13 0.92,-0.13 v 0 q 0.28,0 0.61,0.06 0.34,0.05 0.68,0.17 0.34,0.11 0.67,0.26 0.33,0.16 0.58,0.37 z m 13.02,-2.62 v 0 h 2.97 v 9.14 h -1.86 V 3.25 l -2.37,7.25 h -1.76 l -2.51,-7.24 v 7.24 h -1.73 V 1.36 h 2.97 l 2.14,6.72 z m 7.83,1.76 v 0 q 0.46,0 0.99,0.15 0.54,0.15 1,0.48 0.46,0.32 0.75,0.84 0.3,0.52 0.28,1.26 v 0 4.65 h -1.37 q 0,0 -0.04,-0.17 -0.04,-0.17 -0.09,-0.38 -0.05,-0.21 -0.09,-0.37 -0.04,-0.16 -0.04,-0.14 v 0 q -0.2,0.35 -0.52,0.61 v 0 q -0.28,0.24 -0.72,0.42 -0.44,0.18 -1.09,0.18 v 0 q -0.45,0 -0.88,-0.13 -0.43,-0.13 -0.78,-0.39 -0.34,-0.26 -0.56,-0.65 -0.21,-0.39 -0.23,-0.91 v 0 q -0.03,-0.55 0.15,-0.98 0.17,-0.42 0.5,-0.73 0.33,-0.31 0.79,-0.5 0.47,-0.19 1.01,-0.26 v 0 q 0.52,-0.07 1.14,-0.07 0.61,0 1.1,0.03 v 0 -0.22 q 0,-0.6 -0.26,-0.91 -0.27,-0.3 -0.67,-0.39 -0.4,-0.09 -0.87,-0.02 -0.48,0.07 -0.91,0.2 -0.44,0.14 -0.77,0.28 -0.33,0.15 -0.41,0.22 v 0 -1.41 q 0.01,-0.02 0.25,-0.12 0.24,-0.11 0.6,-0.23 0.37,-0.13 0.82,-0.23 0.46,-0.11 0.92,-0.11 z m 0.9,5.56 v 0 q 0.23,-0.31 0.31,-0.69 0.08,-0.37 0.08,-0.79 v 0 h -0.81 q -0.33,0 -0.69,0.04 -0.36,0.04 -0.67,0.17 -0.31,0.12 -0.52,0.37 -0.21,0.24 -0.21,0.66 v 0 q 0,0.46 0.34,0.67 0.35,0.21 0.85,0.21 v 0 q 0.43,0 0.76,-0.17 0.33,-0.18 0.56,-0.47 z m 8.31,-5.5 V 5.1 q -0.32,-0.07 -0.58,-0.08 -0.26,-0.01 -0.48,0.01 v 0 q -0.45,0.02 -0.74,0.19 -0.28,0.17 -0.44,0.44 -0.15,0.28 -0.21,0.62 -0.05,0.34 -0.05,0.71 v 0 3.51 h -1.89 V 3.36 h 1.38 l 0.3,1.57 q 0,0 0.03,-0.16 0.04,-0.16 0.14,-0.39 0.11,-0.24 0.3,-0.5 0.2,-0.25 0.5,-0.45 0.3,-0.2 0.73,-0.28 0.42,-0.08 1.01,0.03 z m 7.56,0.11 -2.57,3.7 q 0.29,0.4 0.63,0.85 0.33,0.45 0.68,0.91 0.34,0.46 0.67,0.91 0.33,0.45 0.62,0.84 v 0 h -2.16 l -1.93,-2.74 h -0.42 v 2.74 h -1.87 V 1.55 h 1.87 v 4.64 h 0.41 q 0,0 0.15,-0.22 0.14,-0.22 0.36,-0.54 0.22,-0.32 0.47,-0.69 0.25,-0.37 0.46,-0.69 0.21,-0.33 0.36,-0.54 0.14,-0.22 0.14,-0.22 v 0 z m 4.57,7.36 v 0 q -1.17,0 -1.92,-0.3 -0.76,-0.31 -1.21,-0.83 -0.46,-0.52 -0.64,-1.2 -0.18,-0.68 -0.18,-1.43 v 0 q 0,-0.67 0.18,-1.35 0.18,-0.67 0.58,-1.21 0.4,-0.54 1.04,-0.87 0.65,-0.34 1.57,-0.34 v 0 q 0.98,0 1.63,0.34 0.65,0.33 1.05,0.87 0.39,0.54 0.55,1.21 0.16,0.68 0.16,1.35 v 0 0.63 h -4.96 q 0,0.75 0.54,1.24 0.54,0.49 1.48,0.49 v 0 q 0.53,0 0.98,-0.11 0.45,-0.11 0.77,-0.25 v 0 q 0.36,-0.15 0.67,-0.36 v 0 1.56 q 0,0.02 -0.18,0.1 -0.18,0.09 -0.49,0.19 -0.31,0.11 -0.73,0.19 -0.42,0.08 -0.89,0.08 z m -2.15,-4.46 h 3.18 q 0,-0.24 -0.06,-0.53 -0.06,-0.28 -0.24,-0.54 -0.17,-0.25 -0.49,-0.42 -0.31,-0.16 -0.82,-0.16 v 0 q -0.43,0 -0.73,0.16 -0.3,0.17 -0.49,0.42 -0.18,0.26 -0.26,0.54 -0.09,0.29 -0.09,0.53 z m 9.37,3.01 v 0 q 0.41,0 0.76,-0.07 v 0 q 0.16,-0.04 0.33,-0.09 v 0 l 0.02,1.46 q -0.26,0.04 -0.54,0.08 v 0 q -0.23,0.03 -0.56,0.05 -0.32,0.02 -0.68,0.02 v 0 q -0.53,-0.05 -0.94,-0.32 v 0 q -0.35,-0.24 -0.64,-0.7 -0.28,-0.47 -0.28,-1.33 v 0 -2.94 h -1.38 V 3.99 h 1.38 V 1.97 l 1.86,-0.42 v 2.44 h 1.69 v 1.37 h -1.66 V 8.2 q 0,0.19 0.05,0.36 0.04,0.18 0.14,0.32 0.09,0.14 0.21,0.23 0.11,0.09 0.24,0.09 z"
       id="path2" />
  </g>
  <defs
     data-v-fde0c5aa=""
     id="defs3">
    <!---->
  </defs>
  <g
     data-v-fde0c5aa=""
     id="1f9c9fab-4297-47d0-9c90-25d3731e36f9"
     stroke="none"
     fill="#d6fcc9"
     transform="matrix(0.45940799,0,0,0.46114268,72.034524,-13.506473)"
     style="fill:#d6fcc9;fill-opacity:1">
    <path
       d="m -131.08673,71.690785 c -0.227,-3.52 0.184,-7.083 1.624,-10.166 0.716,-1.548 1.786,-2.85 2.79,-4.167 1.041,-1.304 2.18,-2.556 3.61,-3.617 l -0.054,-0.167 c -0.943,0.074 -1.838,0.434 -2.647,0.897 -0.817,0.462 -1.554,1.052 -2.224,1.71 -1.356,1.322 -2.163,3.084 -2.782,4.812 -1.246,3.498 -1.255,7.255 -0.491,10.719 z m 6.732,2.929 0.175,-0.028 c -0.296,-3.348 -0.149,-6.733 0.839,-9.835 0.488,-1.556 1.313,-2.938 2.034,-4.345 a 27.715,27.715 0 0 1 2.673,-4.106 l -0.095,-0.15 c -1.695,0.606 -3.039,1.889 -4.077,3.326 -1.057,1.454 -1.539,3.219 -1.902,4.92 -0.726,3.434 -0.476,6.94 0.353,10.218 z m 3.034,28.940995 c -1.803,1.318 -3.485,2.814 -5.332,4.111 -3.687,2.594 -7.621,4.863 -11.714,6.854 l 0.069,0.16 c 4.312,-1.492 8.471,-3.468 12.415,-5.832 1.964,-1.189 3.977,-2.361 5.685,-3.936 1.694,-1.564 3.314,-3.305 4.342,-5.426995 l -0.141,-0.108 c -1.764,1.485995 -3.529,2.829995 -5.324,4.177995 z m 11.585,-38.803995 c 0.985,3.102 1.136,6.487 0.838,9.835 l 0.174,0.028 c 0.831,-3.278 1.082,-6.784 0.353,-10.219 -0.363,-1.701 -0.843,-3.464 -1.899,-4.92 -1.038,-1.436 -2.382,-2.72 -4.078,-3.326 l -0.093,0.15 a 27.92,27.92 0 0 1 2.672,4.106 c 0.722,1.409 1.546,2.79 2.033,4.346 z m 3.333,-7.399 c 1.002,1.317 2.071,2.617 2.789,4.167 1.44,3.083 1.851,6.646 1.623,10.166 l 0.175,0.023 c 0.764,-3.465 0.756,-7.223 -0.492,-10.719 -0.62,-1.728 -1.425,-3.49 -2.781,-4.812 -0.67,-0.657 -1.408,-1.249 -2.225,-1.71 -0.808,-0.464 -1.703,-0.823 -2.646,-0.898 l -0.054,0.167 c 1.429,1.06 2.569,2.312 3.611,3.616 z m 27.015001,-0.373 c -0.116,5.578 4.056,7.875 6.936,8.858 2.228,-1.641 3.353,-5.905 2.24,-8.858 1.184,1.968 2.097,0 2.097,0 0,0 2.081,7.777 -1.476,9.892 2.859,1.035 9.045,1.411 13.941,0 -1.641,4.642 -10.497,5.856 -14.563,3.56 -2.829,6.245 -7.09,8.529 -13.323,3.832 5.579,2.849 7.22,-1.864 8.952,-5.8 -3.842,-1.642 -6.655,-9.188 -4.804,-11.484 z m -47.192001,-5.779 c 3.121,0 5.886,-0.519 7.097,-3.461 1.211,-2.941 2.358,-12.476 2.358,-12.476 h 1.172 c 0,0 1.145,9.533 2.357,12.476 1.212,2.943 3.977,3.461 7.098,3.461 3.809,0 11.079001,2.943 11.079001,11.252 0,8.311 -5.717001,16.464 -21.119001,16.464 -15.401,0 -21.121,-8.153 -21.121,-16.464 0.001,-8.309 7.271,-11.252 11.079,-11.252 z m -15.785,65.930995 c 4.032,-4.952 4.032,-30.653995 28.438,-19.747995 3.265,26.487995 -18.858,19.090995 -28.438,19.747995 z m 29.784,-21.080995 c -8.954,-8.372 1.185,-11.556 4.186,-17.135 6.737,14.113 -2.644,13.795 -3.695,16.745 12.054,-4.788 11.826,6.777995 14.325001,11.109995 -8.058001,-1.538 -15.649001,2.132 -14.816001,-10.719995 z m 36.534001,13.420995 c -13.076,0 -23.678,-10.501995 -23.678,-23.457995 0,-11.321 8.097,-20.765 18.866,-22.971 0.813,2.25 2.26,4.656 4.16,6.093 -1.171,2.639 -2.144,4.229 -3.763,4.331 -1.466,0.093 -3.524,-0.362 -4.957,-0.723 0.681,4.019 5.759,5.685 7.954,5.685 3.236,0 5.938,-1.965 8.047,-5.847 1.272,0.422 2.762,0.646 4.339,0.646 2.56,0 5.341,-0.597 7.512,-1.861 3.246,4.016 5.202,9.102 5.202,14.649 -0.003,12.954 -10.604,23.455995 -23.682,23.455995 z M -108.88973,99.449785 c -0.606,-0.783 -1.173,-1.586 -1.668,-2.525 l -0.116,0.019 c -0.137,1.117 0.271,2.216 0.809,3.163995 0.546,0.967 1.413,1.692 2.274,2.344 a 11.724,11.724 0 0 0 2.827,1.556 c 1.007,0.365 2.059,0.583 3.098,0.672 l 0.022,-0.115 c -2.023,-0.491 -3.88,-1.471 -5.342,-2.835 -0.738,-0.687 -1.287,-1.52 -1.904,-2.279995 z m -1.243,-7.496 c 0.517,-0.962 0.737,-2.043 0.995,-3.086 0.51,-2.094 0.789,-4.228 0.801,-6.363 l -0.117,-0.008 a 29.097,29.097 0 0 1 -0.67,3.095 31.002,31.002 0 0 1 -0.916,3.009 c -0.348,0.986 -0.837,1.909 -1.171,2.887 -0.338,0.984 -0.703,1.943 -0.995,3.009 l 0.098,0.066 c 0.845,-0.729 1.472,-1.644 1.975,-2.609 z"
       id="path3"
       style="fill:#d6fcc9;fill-opacity:1" />
  </g>
  <!---->
</svg>
