<svg data-v-fde0c5aa="" xmlns="http://www.w3.org/2000/svg" viewBox="0 0 300 300" class="iconLeft"><!----><defs data-v-fde0c5aa=""><!----></defs><rect data-v-fde0c5aa="" fill="#E1396F" x="0" y="0" width="300px" height="300px" class="logo-background-square"></rect><defs data-v-fde0c5aa=""><!----></defs><g data-v-fde0c5aa="" id="7ec04e69-ada0-4cde-bb31-dfdd0f1b842d" fill="#D6FCC9" transform="matrix(1.0278681701967376,0,0,1.0278681701967376,72.65046925050285,142.92312747420084)"><path d="M3.09 6.55L3.09 8.95L6.64 8.95L6.64 10.50L1.13 10.50L1.13 1.36L6.64 1.36L6.34 2.91L3.09 2.91L3.09 5.00L6.34 5.00L6.34 6.55L3.09 6.55ZM11.21 3.12L11.21 3.12Q11.68 3.12 12.21 3.27Q12.74 3.42 13.20 3.75Q13.66 4.07 13.96 4.59Q14.25 5.11 14.24 5.85L14.24 5.85L14.24 10.50L12.87 10.50Q12.87 10.50 12.82 10.33Q12.78 10.16 12.73 9.95Q12.68 9.74 12.64 9.58Q12.60 9.42 12.60 9.44L12.60 9.44Q12.40 9.79 12.08 10.05L12.08 10.05Q11.80 10.29 11.36 10.47Q10.92 10.65 10.28 10.65L10.28 10.65Q9.83 10.65 9.39 10.52Q8.96 10.39 8.62 10.13Q8.27 9.87 8.06 9.48Q7.84 9.09 7.83 8.57L7.83 8.57Q7.80 8.02 7.97 7.59Q8.15 7.17 8.48 6.86Q8.81 6.55 9.27 6.36Q9.73 6.17 10.28 6.10L10.28 6.10Q10.79 6.03 11.41 6.03Q12.03 6.03 12.52 6.06L12.52 6.06L12.52 5.84Q12.52 5.24 12.25 4.93Q11.98 4.63 11.59 4.54Q11.19 4.45 10.71 4.52Q10.23 4.59 9.80 4.72Q9.37 4.86 9.04 5.00Q8.71 5.15 8.62 5.22L8.62 5.22L8.62 3.81Q8.64 3.79 8.88 3.69Q9.11 3.58 9.48 3.46Q9.84 3.33 10.30 3.23Q10.75 3.12 11.21 3.12ZM12.11 8.68L12.11 8.68Q12.35 8.37 12.43 7.99Q12.50 7.62 12.50 7.20L12.50 7.20L11.69 7.20Q11.37 7.20 11.00 7.24Q10.64 7.28 10.33 7.41Q10.02 7.53 9.81 7.78Q9.60 8.02 9.60 8.44L9.60 8.44Q9.60 8.90 9.95 9.11Q10.29 9.32 10.79 9.32L10.79 9.32Q11.23 9.32 11.56 9.15Q11.89 8.97 12.11 8.68ZM20.79 3.98L20.16 5.39Q19.68 5.03 19.12 4.84Q18.56 4.66 18.19 4.66L18.19 4.66Q17.82 4.66 17.61 4.79Q17.40 4.91 17.40 5.24L17.40 5.24Q17.40 5.52 17.67 5.68Q17.93 5.85 18.33 6.00Q18.72 6.15 19.18 6.31Q19.64 6.47 20.03 6.73Q20.43 6.99 20.69 7.38Q20.96 7.78 20.96 8.40L20.96 8.40Q20.96 8.99 20.74 9.41Q20.52 9.84 20.17 10.12Q19.81 10.39 19.35 10.52Q18.89 10.65 18.40 10.65L18.40 10.65Q18.05 10.65 17.65 10.58Q17.25 10.50 16.86 10.34Q16.48 10.18 16.12 9.95Q15.76 9.72 15.50 9.42L15.50 9.42L16.11 8.05Q16.60 8.58 17.16 8.86Q17.72 9.13 18.19 9.13L18.19 9.13Q18.58 9.13 18.94 8.99Q19.31 8.85 19.32 8.51L19.32 8.51Q19.33 8.19 19.07 7.99Q18.82 7.78 18.42 7.63Q18.03 7.48 17.57 7.31Q17.11 7.15 16.72 6.90Q16.32 6.65 16.06 6.27Q15.79 5.89 15.81 5.29L15.81 5.29Q15.81 4.72 16.01 4.30Q16.21 3.89 16.55 3.63Q16.88 3.37 17.32 3.25Q17.77 3.12 18.24 3.12L18.24 3.12Q18.52 3.12 18.86 3.18Q19.19 3.23 19.54 3.35Q19.88 3.46 20.21 3.61Q20.54 3.77 20.79 3.98L20.79 3.98ZM25.42 9.20L25.42 9.20Q25.83 9.20 26.18 9.13L26.18 9.13Q26.35 9.09 26.52 9.04L26.52 9.04L26.53 10.50Q26.28 10.54 26.00 10.58L26.00 10.58Q25.76 10.61 25.44 10.63Q25.12 10.65 24.75 10.65L24.75 10.65Q24.22 10.60 23.81 10.33L23.81 10.33Q23.46 10.09 23.18 9.63Q22.89 9.16 22.89 8.30L22.89 8.30L22.89 5.36L21.52 5.36L21.52 3.99L22.89 3.99L22.89 1.97L24.75 1.55L24.75 3.99L26.45 3.99L26.45 5.36L24.78 5.36L24.78 8.20Q24.78 8.39 24.83 8.56Q24.88 8.74 24.97 8.88Q25.06 9.02 25.18 9.11Q25.30 9.20 25.42 9.20ZM37.53 1.36L37.53 1.36L39.52 1.36L36.53 10.50L34.10 10.50L31.04 1.36L33.01 1.36L35.32 8.40L37.53 1.36ZM42.69 3.12L42.69 3.12Q43.15 3.12 43.68 3.27Q44.21 3.42 44.67 3.75Q45.14 4.07 45.43 4.59Q45.72 5.11 45.71 5.85L45.71 5.85L45.71 10.50L44.34 10.50Q44.34 10.50 44.30 10.33Q44.25 10.16 44.20 9.95Q44.16 9.74 44.11 9.58Q44.07 9.42 44.07 9.44L44.07 9.44Q43.88 9.79 43.55 10.05L43.55 10.05Q43.27 10.29 42.83 10.47Q42.39 10.65 41.75 10.65L41.75 10.65Q41.30 10.65 40.87 10.52Q40.43 10.39 40.09 10.13Q39.75 9.87 39.53 9.48Q39.31 9.09 39.30 8.57L39.30 8.57Q39.27 8.02 39.44 7.59Q39.62 7.17 39.95 6.86Q40.28 6.55 40.74 6.36Q41.20 6.17 41.75 6.10L41.75 6.10Q42.27 6.03 42.88 6.03Q43.50 6.03 43.99 6.06L43.99 6.06L43.99 5.84Q43.99 5.24 43.72 4.93Q43.46 4.63 43.06 4.54Q42.66 4.45 42.18 4.52Q41.71 4.59 41.27 4.72Q40.84 4.86 40.51 5.00Q40.18 5.15 40.10 5.22L40.10 5.22L40.10 3.81Q40.11 3.79 40.35 3.69Q40.59 3.58 40.95 3.46Q41.31 3.33 41.77 3.23Q42.22 3.12 42.69 3.12ZM43.58 8.68L43.58 8.68Q43.82 8.37 43.90 7.99Q43.97 7.62 43.97 7.20L43.97 7.20L43.16 7.20Q42.84 7.20 42.48 7.24Q42.11 7.28 41.80 7.41Q41.50 7.53 41.29 7.78Q41.08 8.02 41.08 8.44L41.08 8.44Q41.08 8.90 41.42 9.11Q41.76 9.32 42.27 9.32L42.27 9.32Q42.70 9.32 43.03 9.15Q43.36 8.97 43.58 8.68ZM49.39 8.48L49.39 8.48Q49.41 8.72 49.52 8.86Q49.63 9.00 49.79 9.06Q49.95 9.13 50.16 9.13Q50.36 9.14 50.58 9.11L50.58 9.11L50.58 10.56Q50.39 10.60 50.24 10.62Q50.09 10.64 49.98 10.65L49.98 10.65Q49.85 10.67 49.77 10.65L49.77 10.65Q49.24 10.65 48.82 10.61Q48.40 10.57 48.10 10.34Q47.81 10.11 47.66 9.64Q47.50 9.17 47.50 8.30L47.50 8.30L47.50 1.55L49.39 1.55L49.39 8.48ZM54.25 8.48L54.25 8.48Q54.26 8.72 54.38 8.86Q54.49 9.00 54.65 9.06Q54.81 9.13 55.01 9.13Q55.22 9.14 55.44 9.11L55.44 9.11L55.44 10.56Q55.24 10.60 55.10 10.62Q54.95 10.64 54.84 10.65L54.84 10.65Q54.71 10.67 54.63 10.65L54.63 10.65Q54.10 10.65 53.68 10.61Q53.26 10.57 52.96 10.34Q52.67 10.11 52.51 9.64Q52.36 9.17 52.36 8.30L52.36 8.30L52.36 1.55L54.25 1.55L54.25 8.48ZM60.66 10.65L60.66 10.65Q59.50 10.65 58.74 10.35Q57.99 10.04 57.53 9.52Q57.08 9.00 56.90 8.32Q56.71 7.64 56.71 6.89L56.71 6.89Q56.71 6.22 56.90 5.54Q57.08 4.87 57.48 4.33Q57.88 3.79 58.52 3.46Q59.16 3.12 60.09 3.12L60.09 3.12Q61.07 3.12 61.72 3.46Q62.37 3.79 62.76 4.33Q63.15 4.87 63.32 5.54Q63.48 6.22 63.48 6.89L63.48 6.89L63.48 7.52L58.52 7.52Q58.52 8.27 59.06 8.76Q59.60 9.25 60.54 9.25L60.54 9.25Q61.07 9.25 61.52 9.14Q61.96 9.03 62.29 8.89L62.29 8.89Q62.65 8.74 62.96 8.53L62.96 8.53L62.96 10.09Q62.96 10.11 62.78 10.19Q62.59 10.28 62.29 10.38Q61.98 10.49 61.56 10.57Q61.14 10.65 60.66 10.65ZM58.52 6.19L61.70 6.19Q61.70 5.95 61.64 5.66Q61.57 5.38 61.40 5.12Q61.22 4.87 60.91 4.70Q60.59 4.54 60.09 4.54L60.09 4.54Q59.65 4.54 59.35 4.70Q59.05 4.87 58.87 5.12Q58.69 5.38 58.60 5.66Q58.52 5.95 58.52 6.19L58.52 6.19ZM69.57 3.29L71.62 3.29L68.91 10.32Q68.89 10.35 68.81 10.56Q68.73 10.78 68.54 11.09Q68.36 11.40 68.08 11.74Q67.80 12.08 67.40 12.38Q67.00 12.67 66.48 12.87Q65.95 13.06 65.30 13.06L65.30 13.06L65.30 11.45Q65.70 11.45 66.00 11.28Q66.29 11.10 66.49 10.89L66.49 10.89Q66.71 10.64 66.86 10.32L66.86 10.32L64.13 3.29L66.21 3.29L67.97 8.54L69.57 3.29ZM78.76 6.55L78.76 10.50L76.80 10.50L76.80 1.36L82.32 1.36L82.03 2.91L78.76 2.91L78.76 5.00L82.03 5.00L82.03 6.55L78.76 6.55ZM86.48 3.12L86.48 3.12Q86.94 3.12 87.47 3.27Q88.00 3.42 88.47 3.75Q88.93 4.07 89.22 4.59Q89.52 5.11 89.50 5.85L89.50 5.85L89.50 10.50L88.13 10.50Q88.13 10.50 88.09 10.33Q88.05 10.16 88.00 9.95Q87.95 9.74 87.91 9.58Q87.86 9.42 87.86 9.44L87.86 9.44Q87.67 9.79 87.35 10.05L87.35 10.05Q87.07 10.29 86.63 10.47Q86.18 10.65 85.54 10.65L85.54 10.65Q85.09 10.65 84.66 10.52Q84.22 10.39 83.88 10.13Q83.54 9.87 83.32 9.48Q83.10 9.09 83.09 8.57L83.09 8.57Q83.06 8.02 83.24 7.59Q83.41 7.17 83.74 6.86Q84.07 6.55 84.53 6.36Q84.99 6.17 85.54 6.10L85.54 6.10Q86.06 6.03 86.67 6.03Q87.29 6.03 87.78 6.06L87.78 6.06L87.78 5.84Q87.78 5.24 87.51 4.93Q87.25 4.63 86.85 4.54Q86.45 4.45 85.97 4.52Q85.50 4.59 85.06 4.72Q84.63 4.86 84.30 5.00Q83.97 5.15 83.89 5.22L83.89 5.22L83.89 3.81Q83.90 3.79 84.14 3.69Q84.38 3.58 84.74 3.46Q85.11 3.33 85.56 3.23Q86.02 3.12 86.48 3.12ZM87.37 8.68L87.37 8.68Q87.61 8.37 87.69 7.99Q87.77 7.62 87.77 7.20L87.77 7.20L86.95 7.20Q86.63 7.20 86.27 7.24Q85.90 7.28 85.60 7.41Q85.29 7.53 85.08 7.78Q84.87 8.02 84.87 8.44L84.87 8.44Q84.87 8.90 85.21 9.11Q85.55 9.32 86.06 9.32L86.06 9.32Q86.49 9.32 86.82 9.15Q87.15 8.97 87.37 8.68ZM95.69 3.18L95.69 5.10Q95.37 5.03 95.11 5.02Q94.85 5.01 94.63 5.03L94.63 5.03Q94.18 5.05 93.89 5.22Q93.60 5.39 93.45 5.66Q93.30 5.94 93.24 6.28Q93.18 6.62 93.18 6.99L93.18 6.99L93.18 10.50L91.29 10.50L91.29 3.36L92.68 3.36L92.97 4.93Q92.97 4.93 93.01 4.77Q93.04 4.61 93.15 4.38Q93.25 4.14 93.45 3.88Q93.65 3.63 93.95 3.43Q94.25 3.23 94.67 3.15Q95.10 3.07 95.69 3.18L95.69 3.18ZM105.11 3.12L105.11 3.12Q105.87 3.12 106.32 3.39Q106.78 3.65 107.02 4.09Q107.25 4.52 107.33 5.08Q107.41 5.64 107.41 6.24L107.41 6.24L107.41 10.50L105.53 10.50L105.53 10.49L105.52 6.19Q105.52 5.84 105.48 5.54Q105.43 5.25 105.31 5.04Q105.20 4.83 104.99 4.71Q104.78 4.59 104.45 4.59L104.45 4.59Q104.03 4.59 103.75 4.79Q103.47 4.98 103.32 5.29Q103.17 5.59 103.10 5.94Q103.04 6.29 103.04 6.59L103.04 6.59L103.04 10.50L101.19 10.50L101.19 10.49L101.18 10.49L101.18 6.19Q101.18 5.84 101.13 5.54Q101.08 5.25 100.95 5.03Q100.83 4.82 100.60 4.70Q100.38 4.58 100.03 4.58L100.03 4.58Q99.64 4.58 99.39 4.77Q99.13 4.97 98.98 5.27Q98.83 5.57 98.76 5.93Q98.70 6.29 98.70 6.59L98.70 6.59L98.70 10.50L96.82 10.50L96.82 3.29L98.24 3.29L98.55 4.40Q98.55 4.40 98.67 4.20Q98.80 4.00 99.05 3.77Q99.30 3.53 99.69 3.33Q100.07 3.12 100.60 3.12L100.60 3.12Q101.30 3.12 101.74 3.32Q102.17 3.51 102.42 3.75L102.42 3.75Q102.72 4.03 102.86 4.38L102.86 4.38Q102.89 4.34 103.01 4.14Q103.14 3.95 103.40 3.72Q103.67 3.49 104.09 3.30Q104.51 3.12 105.11 3.12ZM112.80 10.65L112.80 10.65Q111.64 10.65 110.88 10.35Q110.12 10.04 109.67 9.52Q109.21 9.00 109.03 8.32Q108.85 7.64 108.85 6.89L108.85 6.89Q108.85 6.22 109.03 5.54Q109.21 4.87 109.61 4.33Q110.01 3.79 110.66 3.46Q111.30 3.12 112.22 3.12L112.22 3.12Q113.20 3.12 113.86 3.46Q114.51 3.79 114.90 4.33Q115.29 4.87 115.45 5.54Q115.61 6.22 115.61 6.89L115.61 6.89L115.61 7.52L110.66 7.52Q110.66 8.27 111.20 8.76Q111.73 9.25 112.67 9.25L112.67 9.25Q113.20 9.25 113.65 9.14Q114.10 9.03 114.42 8.89L114.42 8.89Q114.79 8.74 115.09 8.53L115.09 8.53L115.09 10.09Q115.09 10.11 114.91 10.19Q114.73 10.28 114.42 10.38Q114.11 10.49 113.69 10.57Q113.27 10.65 112.80 10.65ZM110.66 6.19L113.83 6.19Q113.83 5.95 113.77 5.66Q113.71 5.38 113.53 5.12Q113.36 4.87 113.04 4.70Q112.73 4.54 112.22 4.54L112.22 4.54Q111.79 4.54 111.49 4.70Q111.19 4.87 111.01 5.12Q110.82 5.38 110.74 5.66Q110.66 5.95 110.66 6.19L110.66 6.19ZM121.52 3.18L121.52 5.10Q121.20 5.03 120.94 5.02Q120.68 5.01 120.46 5.03L120.46 5.03Q120.01 5.05 119.72 5.22Q119.43 5.39 119.28 5.66Q119.13 5.94 119.07 6.28Q119.01 6.62 119.01 6.99L119.01 6.99L119.01 10.50L117.12 10.50L117.12 3.36L118.51 3.36L118.80 4.93Q118.80 4.93 118.84 4.77Q118.87 4.61 118.98 4.38Q119.08 4.14 119.28 3.88Q119.48 3.63 119.78 3.43Q120.08 3.23 120.50 3.15Q120.93 3.07 121.52 3.18L121.52 3.18ZM123.05 4.40L123.05 0.71L124.66 0.71L124.66 4.40L123.05 4.40ZM131.75 3.98L131.12 5.39Q130.65 5.03 130.09 4.84Q129.53 4.66 129.15 4.66L129.15 4.66Q128.79 4.66 128.58 4.79Q128.37 4.91 128.37 5.24L128.37 5.24Q128.37 5.52 128.63 5.68Q128.90 5.85 129.29 6.00Q129.68 6.15 130.14 6.31Q130.61 6.47 131.00 6.73Q131.39 6.99 131.66 7.38Q131.92 7.78 131.92 8.40L131.92 8.40Q131.92 8.99 131.70 9.41Q131.49 9.84 131.13 10.12Q130.77 10.39 130.31 10.52Q129.85 10.65 129.36 10.65L129.36 10.65Q129.01 10.65 128.61 10.58Q128.21 10.50 127.83 10.34Q127.44 10.18 127.08 9.95Q126.73 9.72 126.46 9.42L126.46 9.42L127.08 8.05Q127.57 8.58 128.13 8.86Q128.69 9.13 129.15 9.13L129.15 9.13Q129.54 9.13 129.91 8.99Q130.27 8.85 130.28 8.51L130.28 8.51Q130.30 8.19 130.04 7.99Q129.78 7.78 129.39 7.63Q129.00 7.48 128.53 7.31Q128.07 7.15 127.68 6.90Q127.29 6.65 127.02 6.27Q126.76 5.89 126.77 5.29L126.77 5.29Q126.77 4.72 126.97 4.30Q127.18 3.89 127.51 3.63Q127.85 3.37 128.29 3.25Q128.73 3.12 129.21 3.12L129.21 3.12Q129.49 3.12 129.82 3.18Q130.16 3.23 130.50 3.35Q130.84 3.46 131.17 3.61Q131.50 3.77 131.75 3.98L131.75 3.98ZM144.77 1.36L144.77 1.36L147.74 1.36L147.74 10.50L145.88 10.50L145.88 3.25L143.51 10.50L141.75 10.50L139.24 3.26L139.24 10.50L137.51 10.50L137.51 1.36L140.48 1.36L142.62 8.08L144.77 1.36ZM152.60 3.12L152.60 3.12Q153.06 3.12 153.59 3.27Q154.13 3.42 154.59 3.75Q155.05 4.07 155.34 4.59Q155.64 5.11 155.62 5.85L155.62 5.85L155.62 10.50L154.25 10.50Q154.25 10.50 154.21 10.33Q154.17 10.16 154.12 9.95Q154.07 9.74 154.03 9.58Q153.99 9.42 153.99 9.44L153.99 9.44Q153.79 9.79 153.47 10.05L153.47 10.05Q153.19 10.29 152.75 10.47Q152.31 10.65 151.66 10.65L151.66 10.65Q151.21 10.65 150.78 10.52Q150.35 10.39 150.00 10.13Q149.66 9.87 149.44 9.48Q149.23 9.09 149.21 8.57L149.21 8.57Q149.18 8.02 149.36 7.59Q149.53 7.17 149.86 6.86Q150.19 6.55 150.65 6.36Q151.12 6.17 151.66 6.10L151.66 6.10Q152.18 6.03 152.80 6.03Q153.41 6.03 153.90 6.06L153.90 6.06L153.90 5.84Q153.90 5.24 153.64 4.93Q153.37 4.63 152.97 4.54Q152.57 4.45 152.10 4.52Q151.62 4.59 151.19 4.72Q150.75 4.86 150.42 5.00Q150.09 5.15 150.01 5.22L150.01 5.22L150.01 3.81Q150.02 3.79 150.26 3.69Q150.50 3.58 150.86 3.46Q151.23 3.33 151.68 3.23Q152.14 3.12 152.60 3.12ZM153.50 8.68L153.50 8.68Q153.73 8.37 153.81 7.99Q153.89 7.62 153.89 7.20L153.89 7.20L153.08 7.20Q152.75 7.20 152.39 7.24Q152.03 7.28 151.72 7.41Q151.41 7.53 151.20 7.78Q150.99 8.02 150.99 8.44L150.99 8.44Q150.99 8.90 151.33 9.11Q151.68 9.32 152.18 9.32L152.18 9.32Q152.61 9.32 152.94 9.15Q153.27 8.97 153.50 8.68ZM161.81 3.18L161.81 5.10Q161.49 5.03 161.23 5.02Q160.97 5.01 160.75 5.03L160.75 5.03Q160.30 5.05 160.01 5.22Q159.73 5.39 159.57 5.66Q159.42 5.94 159.36 6.28Q159.31 6.62 159.31 6.99L159.31 6.99L159.31 10.50L157.42 10.50L157.42 3.36L158.80 3.36L159.10 4.93Q159.10 4.93 159.13 4.77Q159.17 4.61 159.27 4.38Q159.38 4.14 159.57 3.88Q159.77 3.63 160.07 3.43Q160.37 3.23 160.80 3.15Q161.22 3.07 161.81 3.18L161.81 3.18ZM169.37 3.29L166.80 6.99Q167.09 7.39 167.43 7.84Q167.76 8.29 168.11 8.75Q168.45 9.21 168.78 9.66Q169.11 10.11 169.40 10.50L169.40 10.50L167.24 10.50L165.31 7.76L164.89 7.76L164.89 10.50L163.02 10.50L163.02 1.55L164.89 1.55L164.89 6.19L165.30 6.19Q165.30 6.19 165.45 5.97Q165.59 5.75 165.81 5.43Q166.03 5.11 166.28 4.74Q166.53 4.37 166.74 4.05Q166.95 3.72 167.10 3.51Q167.24 3.29 167.24 3.29L167.24 3.29L169.37 3.29ZM173.94 10.65L173.94 10.65Q172.77 10.65 172.02 10.35Q171.26 10.04 170.81 9.52Q170.35 9.00 170.17 8.32Q169.99 7.64 169.99 6.89L169.99 6.89Q169.99 6.22 170.17 5.54Q170.35 4.87 170.75 4.33Q171.15 3.79 171.79 3.46Q172.44 3.12 173.36 3.12L173.36 3.12Q174.34 3.12 174.99 3.46Q175.64 3.79 176.04 4.33Q176.43 4.87 176.59 5.54Q176.75 6.22 176.75 6.89L176.75 6.89L176.75 7.52L171.79 7.52Q171.79 8.27 172.33 8.76Q172.87 9.25 173.81 9.25L173.81 9.25Q174.34 9.25 174.79 9.14Q175.24 9.03 175.56 8.89L175.56 8.89Q175.92 8.74 176.23 8.53L176.23 8.53L176.23 10.09Q176.23 10.11 176.05 10.19Q175.87 10.28 175.56 10.38Q175.25 10.49 174.83 10.57Q174.41 10.65 173.94 10.65ZM171.79 6.19L174.97 6.19Q174.97 5.95 174.91 5.66Q174.85 5.38 174.67 5.12Q174.50 4.87 174.18 4.70Q173.87 4.54 173.36 4.54L173.36 4.54Q172.93 4.54 172.63 4.70Q172.33 4.87 172.14 5.12Q171.96 5.38 171.88 5.66Q171.79 5.95 171.79 6.19L171.79 6.19ZM181.16 9.20L181.16 9.20Q181.57 9.20 181.92 9.13L181.92 9.13Q182.08 9.09 182.25 9.04L182.25 9.04L182.27 10.50Q182.01 10.54 181.73 10.58L181.73 10.58Q181.50 10.61 181.17 10.63Q180.85 10.65 180.49 10.65L180.49 10.65Q179.96 10.60 179.55 10.33L179.55 10.33Q179.20 10.09 178.91 9.63Q178.63 9.16 178.63 8.30L178.63 8.30L178.63 5.36L177.25 5.36L177.25 3.99L178.63 3.99L178.63 1.97L180.49 1.55L180.49 3.99L182.18 3.99L182.18 5.36L180.52 5.36L180.52 8.20Q180.52 8.39 180.57 8.56Q180.61 8.74 180.71 8.88Q180.80 9.02 180.92 9.11Q181.03 9.20 181.16 9.20Z"></path></g><defs data-v-fde0c5aa=""><!----></defs><g data-v-fde0c5aa="" id="1f9c9fab-4297-47d0-9c90-25d3731e36f9" stroke="none" fill="#D6FCC9" transform="matrix(0.2312440030880434,0,0,0.2312440030880434,38.84377998455978,138.4377169257664)"><path d="M16.278 45.251c-.227-3.52.184-7.083 1.624-10.166.716-1.548 1.786-2.85 2.79-4.167 1.041-1.304 2.18-2.556 3.61-3.617l-.054-.167c-.943.074-1.838.434-2.647.897-.817.462-1.554 1.052-2.224 1.71-1.356 1.322-2.163 3.084-2.782 4.812-1.246 3.498-1.255 7.255-.491 10.719l.174-.021zm6.732 2.929l.175-.028c-.296-3.348-.149-6.733.839-9.835.488-1.556 1.313-2.938 2.034-4.345a27.715 27.715 0 012.673-4.106l-.095-.15c-1.695.606-3.039 1.889-4.077 3.326-1.057 1.454-1.539 3.219-1.902 4.92-.726 3.434-.476 6.94.353 10.218zm3.034 28.941c-1.803 1.318-3.485 2.814-5.332 4.111-3.687 2.594-7.621 4.863-11.714 6.854l.069.16c4.312-1.492 8.471-3.468 12.415-5.832 1.964-1.189 3.977-2.361 5.685-3.936 1.694-1.564 3.314-3.305 4.342-5.427l-.141-.108c-1.764 1.486-3.529 2.83-5.324 4.178zm11.585-38.804c.985 3.102 1.136 6.487.838 9.835l.174.028c.831-3.278 1.082-6.784.353-10.219-.363-1.701-.843-3.464-1.899-4.92-1.038-1.436-2.382-2.72-4.078-3.326l-.093.15a27.92 27.92 0 012.672 4.106c.722 1.409 1.546 2.79 2.033 4.346zm3.333-7.399c1.002 1.317 2.071 2.617 2.789 4.167 1.44 3.083 1.851 6.646 1.623 10.166l.175.023c.764-3.465.756-7.223-.492-10.719-.62-1.728-1.425-3.49-2.781-4.812-.67-.657-1.408-1.249-2.225-1.71-.808-.464-1.703-.823-2.646-.898l-.054.167c1.429 1.06 2.569 2.312 3.611 3.616zm27.015-.373c-.116 5.578 4.056 7.875 6.936 8.858 2.228-1.641 3.353-5.905 2.24-8.858 1.184 1.968 2.097 0 2.097 0s2.081 7.777-1.476 9.892c2.859 1.035 9.045 1.411 13.941 0-1.641 4.642-10.497 5.856-14.563 3.56-2.829 6.245-7.09 8.529-13.323 3.832 5.579 2.849 7.22-1.864 8.952-5.8-3.842-1.642-6.655-9.188-4.804-11.484zm-47.192-5.779c3.121 0 5.886-.519 7.097-3.461 1.211-2.941 2.358-12.476 2.358-12.476h1.172s1.145 9.533 2.357 12.476c1.212 2.943 3.977 3.461 7.098 3.461 3.809 0 11.079 2.943 11.079 11.252 0 8.311-5.717 16.464-21.119 16.464-15.401 0-21.121-8.153-21.121-16.464.001-8.309 7.271-11.252 11.079-11.252zM5 90.697c4.032-4.952 4.032-30.654 28.438-19.748C36.703 97.437 14.58 90.04 5 90.697zm29.784-21.081c-8.954-8.372 1.185-11.556 4.186-17.135 6.737 14.113-2.644 13.795-3.695 16.745 12.054-4.788 11.826 6.778 14.325 11.11-8.058-1.538-15.649 2.132-14.816-10.72zm36.534 13.421c-13.076 0-23.678-10.502-23.678-23.458 0-11.321 8.097-20.765 18.866-22.971.813 2.25 2.26 4.656 4.16 6.093-1.171 2.639-2.144 4.229-3.763 4.331-1.466.093-3.524-.362-4.957-.723.681 4.019 5.759 5.685 7.954 5.685 3.236 0 5.938-1.965 8.047-5.847 1.272.422 2.762.646 4.339.646 2.56 0 5.341-.597 7.512-1.861C93.044 48.948 95 54.034 95 59.581c-.003 12.954-10.604 23.456-23.682 23.456zM38.475 73.01c-.606-.783-1.173-1.586-1.668-2.525l-.116.019c-.137 1.117.271 2.216.809 3.164.546.967 1.413 1.692 2.274 2.344a11.724 11.724 0 002.827 1.556c1.007.365 2.059.583 3.098.672l.022-.115c-2.023-.491-3.88-1.471-5.342-2.835-.738-.687-1.287-1.52-1.904-2.28zm-1.243-7.496c.517-.962.737-2.043.995-3.086.51-2.094.789-4.228.801-6.363l-.117-.008a29.097 29.097 0 01-.67 3.095 31.002 31.002 0 01-.916 3.009c-.348.986-.837 1.909-1.171 2.887-.338.984-.703 1.943-.995 3.009l.098.066c.845-.729 1.472-1.644 1.975-2.609z"></path></g><!----></svg>